 <svg  version="1.0" xmlns="http://www.w3.org/2000/svg"  width="300.000000pt" height="300.000000pt" viewBox="0 0 300.000000 300.000000"  preserveAspectRatio="xMidYMid meet">  <g transform="translate(0.000000,300.000000) scale(0.100000,-0.100000)" fill="#e3e3e3" stroke="none"> <path d="M816 2774 c-60 -22 -104 -60 -131 -114 l-25 -49 0 -838 0 -838 -93 0 c-81 0 -99 -3 -149 -28 -74 -36 -139 -102 -175 -175 -25 -50 -28 -68 -28 -152 0 -85 3 -101 29 -154 37 -76 101 -140 174 -174 49 -23 70 -27 152 -27 71 0 106 5 136 18 41 19 42 19 85 -5 l44 -23 660 0 c700 0 667 -2 740 44 18 12 27 9 72 -18 27 -17 55 -31 61 -31 25 0 240 139 285 184 31 31 64 79 86 125 l36 76 0 235 0 235 -106 35 c-109 37 -176 71 -242 123 -28 22 -45 28 -67 25 l-30 -5 0 419 c0 414 0 418 20 418 31 0 91 34 127 72 60 62 77 143 51 232 -18 59 -94 132 -152 147 -43 11 -46 13 -46 45 0 81 -70 168 -159 199 -64 22 -1295 21 -1355 -1z m1378 -34 c61 -32 107 -93 113 -154 5 -45 5 -46 -23 -47 -16 0 -38 -4 -49 -8 -14 -6 -28 -2 -48 15 -15 13 -42 26 -60 29 -18 3 -314 5 -659 3 -618 -3 -627 -3 -655 -24 -15 -11 -38 -36 -50 -54 l-23 -33 0 -783 0 -782 -30 11 -30 11 0 841 0 840 29 51 c16 28 42 59 58 69 66 43 78 44 743 42 l636 -2 48 -25z m-31 -203 l28 -18 -46 -45 c-116 -116 -84 -310 62 -377 l23 -10 0 -462 0 -461 -77 -32 c-159 -64 -139 -62 -690 -62 l-504 0 -25 -25 c-25 -25 -26 -29 -22 -135 2 -89 6 -113 21 -127 17 -17 51 -18 520 -18 l502 0 -3 -35 c-5 -52 23 -170 53 -229 14 -29 48 -75 75 -103 28 -29 50 -53 50 -55 0 -2 -289 -3 -641 -3 l-641 0 16 22 c53 73 80 186 65 280 -12 75 -46 137 -111 200 l-58 58 2 784 c3 776 3 785 24 813 11 15 36 36 55 46 32 16 79 17 664 15 588 -3 633 -4 658 -21z m211 -28 c74 -20 146 -119 146 -200 0 -113 -98 -209 -213 -209 -106 0 -195 77 -205 179 -7 75 5 118 46 163 63 70 137 92 226 67z m-64 -858 l0 -430 -30 -21 -30 -21 0 450 0 451 30 0 30 0 0 -429z m116 -456 c58 -45 169 -97 262 -125 l74 -21 -4 -222 -3 -222 -36 -75 c-47 -96 -100 -148 -239 -233 l-111 -68 -112 67 c-133 80 -198 142 -240 232 l-32 67 -3 228 c-3 181 -1 228 10 231 154 45 241 84 318 142 25 18 51 34 57 34 7 0 33 -16 59 -35z m-473 -279 l2 -126 -505 2 -505 3 0 120 0 120 500 5 c275 3 501 4 503 4 2 -1 4 -59 5 -128z m-1393 -34 c0 -37 -1 -39 -48 -51 -27 -6 -65 -23 -84 -36 l-35 -24 -29 30 c-24 25 -26 32 -14 40 62 40 87 53 123 65 75 23 87 19 87 -24z m155 7 c22 -11 51 -28 65 -39 l25 -19 -29 -29 -28 -30 -35 24 c-33 22 -92 44 -120 44 -8 0 -13 15 -13 41 l0 41 47 -7 c26 -4 65 -16 88 -26z m-37 -98 c77 -39 132 -128 132 -211 0 -100 -82 -207 -178 -230 -209 -50 -373 175 -261 357 62 100 202 138 307 84z m-323 -70 c-13 -20 -29 -57 -36 -83 -11 -47 -12 -48 -51 -48 l-40 0 7 43 c9 55 30 103 61 145 l26 34 28 -27 29 -27 -24 -37z m503 42 c31 -49 52 -110 52 -150 0 -20 -5 -23 -38 -23 -37 0 -37 1 -49 51 -7 29 -24 66 -37 84 l-25 32 27 26 c15 15 30 27 33 27 4 0 20 -21 37 -47z m-539 -240 c7 -27 23 -64 36 -84 l24 -37 -30 -28 c-28 -27 -29 -27 -44 -8 -27 35 -63 119 -70 162 l-7 42 40 0 c39 0 40 -1 51 -47z m591 17 c0 -40 -34 -128 -64 -165 l-24 -30 -31 29 -30 29 25 32 c13 18 30 55 37 84 12 50 12 51 49 51 35 0 38 -2 38 -30z m-389 -215 c38 -7 39 -8 39 -47 l0 -41 -42 7 c-45 7 -129 44 -162 70 -19 16 -19 17 8 45 l28 29 45 -28 c24 -16 62 -31 84 -35z m271 -8 c-19 -23 -119 -67 -167 -74 l-45 -6 0 39 c0 39 0 39 51 51 29 7 66 24 83 37 l31 24 29 -28 c23 -23 27 -32 18 -43z m1408 -12 c35 -18 31 -31 -16 -51 -52 -22 -1329 -21 -1381 1 l-37 16 33 27 33 27 669 -2 c587 -2 672 -4 699 -18z"/> <path d="M877 2712 c-34 -37 -11 -92 38 -92 50 0 73 60 37 93 -24 22 -55 21 -75 -1z m67 -24 c8 -14 7 -21 -6 -34 -30 -30 -75 9 -48 42 16 18 39 15 54 -8z"/> <path d="M1029 2701 c-26 -21 -19 -56 13 -67 29 -9 62 29 48 56 -14 27 -37 31 -61 11z m41 -25 c0 -8 -5 -18 -11 -22 -14 -8 -33 11 -25 25 10 16 36 13 36 -3z"/> <path d="M1240 2373 c-129 -68 -238 -130 -242 -136 -13 -21 -9 -75 8 -91 9 -9 32 -16 55 -16 l39 0 0 -215 c0 -207 -1 -215 -20 -215 -22 0 -44 -34 -36 -56 4 -9 -2 -14 -17 -14 -29 0 -47 -18 -47 -45 0 -45 -2 -45 515 -45 517 0 515 0 515 45 0 27 -18 45 -46 45 -17 0 -21 4 -17 20 7 25 -13 50 -38 50 -18 0 -19 11 -19 215 l0 215 39 0 c23 0 46 7 55 16 17 16 21 70 8 91 -11 17 -482 263 -501 262 -9 -1 -122 -57 -251 -126z m484 -12 c125 -66 233 -125 241 -131 18 -15 19 -52 3 -68 -17 -17 -929 -17 -946 0 -24 24 -14 58 25 81 45 27 436 235 444 236 3 1 108 -53 233 -118z m-484 -446 l0 -215 -60 0 -60 0 0 215 0 215 60 0 60 0 0 -215z m170 0 l0 -215 -75 0 -75 0 0 215 0 215 75 0 75 0 0 -215z m145 0 l0 -216 -58 3 -58 3 -2 213 -2 212 60 0 60 0 0 -215z m175 0 l0 -215 -75 0 -75 0 0 215 0 215 75 0 75 0 0 -215z m140 0 l0 -215 -60 0 -60 0 0 215 0 215 60 0 60 0 0 -215z m55 -260 c0 -20 -8 -20 -424 -23 -257 -1 -429 2 -434 7 -5 5 -7 17 -4 25 6 15 52 16 434 14 420 -3 428 -3 428 -23z m60 -70 c0 -20 -8 -20 -484 -23 -294 -1 -489 2 -494 7 -5 5 -7 17 -4 25 6 15 58 16 494 14 480 -3 488 -3 488 -23z"/> <path d="M1453 2395 c-33 -14 -63 -59 -63 -95 0 -105 150 -138 199 -43 25 50 -1 116 -54 139 -41 17 -42 17 -82 -1z m82 -21 c18 -7 45 -55 45 -79 0 -28 -55 -75 -88 -75 -32 0 -82 47 -82 76 0 21 27 71 42 77 19 8 64 8 83 1z"/> <path d="M934 1426 c-16 -12 -19 -29 -22 -125 -4 -107 -3 -111 22 -136 l25 -25 536 0 536 0 25 25 c25 25 26 29 22 136 -3 96 -6 113 -22 125 -29 21 -1093 21 -1122 0z m1104 -14 c9 -6 12 -38 10 -123 l-3 -114 -550 0 -550 0 -3 114 c-2 85 1 117 10 123 17 10 1069 10 1086 0z"/> <path d="M1002 1328 c-27 -27 -6 -68 35 -68 29 0 48 33 33 60 -12 22 -49 27 -68 8z"/> <path d="M1132 1328 c-27 -27 -6 -68 35 -68 29 0 48 33 33 60 -12 22 -49 27 -68 8z"/> <path d="M1262 1328 c-27 -27 -6 -68 35 -68 29 0 48 33 33 60 -12 22 -49 27 -68 8z"/> <path d="M1392 1328 c-27 -27 -6 -68 35 -68 29 0 48 33 33 60 -12 22 -49 27 -68 8z"/> <path d="M1522 1328 c-30 -30 0 -75 42 -64 27 7 38 35 24 60 -11 19 -49 21 -66 4z"/> <path d="M1644 1314 c-9 -34 15 -59 49 -50 49 12 38 76 -13 76 -23 0 -31 -5 -36 -26z"/> <path d="M1254 616 c-16 -12 -19 -27 -19 -101 0 -74 3 -89 19 -101 16 -11 63 -14 217 -14 239 0 229 -5 229 114 0 120 8 116 -231 116 -153 0 -199 -3 -215 -14z m414 -18 c17 -17 16 -152 -2 -167 -9 -8 -73 -11 -207 -9 l-194 3 -3 84 c-2 61 1 87 10 92 22 14 382 11 396 -3z"/> <path d="M2333 2318 l-62 -62 -29 27 c-31 30 -42 34 -42 15 0 -13 59 -68 73 -68 12 0 147 131 147 142 0 21 -31 3 -87 -54z"/> <path d="M2335 1119 c-51 -34 -147 -81 -215 -104 l-65 -22 0 -189 c0 -173 2 -193 22 -236 32 -70 97 -133 199 -195 l93 -55 88 53 c117 71 157 109 195 187 l33 67 0 179 0 180 -25 13 c-14 6 -57 24 -95 38 -39 14 -97 43 -130 65 -33 22 -62 40 -65 40 -3 0 -18 -9 -35 -21z m94 -42 c28 -19 83 -46 123 -61 40 -16 84 -32 97 -37 l23 -10 -4 -167 c-3 -153 -6 -171 -29 -222 -14 -30 -38 -70 -53 -87 -27 -32 -195 -143 -217 -143 -24 0 -178 102 -214 141 -70 78 -80 112 -83 309 l-4 176 59 18 c61 19 174 73 208 100 28 22 37 20 94 -17z"/> <path d="M2309 925 c-15 -8 -34 -31 -44 -51 -14 -31 -15 -43 -6 -74 6 -21 17 -43 25 -49 12 -10 11 -23 -5 -84 -22 -86 -24 -121 -5 -136 9 -8 46 -11 101 -9 113 4 116 7 87 123 -21 88 -21 88 -2 115 12 17 20 44 20 70 0 34 -6 48 -34 76 -27 27 -42 34 -72 34 -22 -1 -51 -7 -65 -15z m122 -34 c35 -36 39 -86 9 -119 -25 -26 -25 -35 0 -133 12 -44 18 -84 15 -89 -10 -16 -165 -12 -171 4 -3 8 4 53 15 101 l21 87 -20 25 c-22 29 -26 89 -7 114 36 47 96 51 138 10z"/> <path d="M1006 944 c-9 -8 -16 -22 -16 -29 0 -17 27 -45 44 -45 15 0 46 32 46 48 0 15 -29 42 -45 42 -7 0 -21 -7 -29 -16z"/> <path d="M1135 947 c-13 -10 -16 -21 -11 -40 8 -34 41 -44 67 -21 24 21 24 36 1 57 -22 21 -33 21 -57 4z"/> <path d="M1266 947 c-25 -18 -15 -63 16 -73 16 -5 27 -1 40 16 16 20 17 25 5 44 -18 26 -37 30 -61 13z"/> <path d="M1391 946 c-18 -22 -6 -63 21 -72 16 -5 27 -1 40 16 16 20 17 25 5 44 -18 26 -50 32 -66 12z"/> <path d="M1522 948 c-21 -21 -14 -57 14 -70 23 -11 29 -10 45 11 17 21 18 26 6 45 -17 25 -47 32 -65 14z"/> <path d="M1652 948 c-21 -21 -14 -57 14 -70 23 -11 29 -10 45 11 17 21 18 26 6 45 -17 25 -47 32 -65 14z"/> <path d="M564 733 c-3 -13 -12 -23 -19 -23 -21 0 -45 -35 -45 -67 0 -22 9 -38 30 -56 26 -23 30 -32 30 -78 0 -51 0 -52 -20 -34 -11 10 -20 26 -20 37 0 10 -4 18 -10 18 -24 0 -7 -48 30 -83 26 -24 40 -32 40 -22 0 9 11 20 24 27 54 24 54 106 1 130 -22 10 -25 18 -25 60 0 55 15 61 38 15 13 -26 32 -37 32 -17 0 22 -24 60 -42 66 -11 3 -23 15 -28 27 l-9 22 -7 -22z m-4 -95 c0 -50 0 -51 -20 -33 -22 20 -26 55 -8 73 22 22 28 13 28 -40z m59 -102 c9 -24 -5 -62 -25 -70 -11 -4 -14 7 -14 49 0 45 3 53 16 48 9 -3 19 -15 23 -27z"/> <path d="M2470 2756 c-19 -23 -8 -61 18 -64 44 -7 67 32 36 62 -19 20 -38 20 -54 2z"/> <path d="M2682 2638 c-7 -7 -12 -24 -12 -38 0 -34 17 -50 52 -50 18 0 33 8 44 25 15 23 15 27 0 50 -18 27 -63 34 -84 13z m63 -38 c0 -18 -6 -26 -23 -28 -13 -2 -25 3 -28 12 -10 26 4 48 28 44 17 -2 23 -10 23 -28z"/> <path d="M2636 2411 c-3 -5 -3 -16 0 -25 5 -12 0 -16 -20 -16 -17 0 -26 -5 -26 -16 0 -12 6 -15 25 -10 22 6 25 3 25 -19 0 -14 5 -25 10 -25 6 0 10 11 10 25 0 20 5 25 26 25 14 0 23 4 19 10 -3 6 -15 10 -26 10 -12 0 -19 7 -19 19 0 22 -16 36 -24 22z"/> <path d="M360 2216 c-19 -23 -8 -61 18 -64 44 -7 67 32 36 62 -19 20 -38 20 -54 2z"/> <path d="M2744 2186 c-8 -21 3 -36 27 -36 15 0 20 6 17 22 -4 27 -35 37 -44 14z"/> <path d="M409 1964 c-18 -22 13 -53 35 -35 8 7 12 19 10 26 -8 21 -31 25 -45 9z"/> <path d="M280 1805 c0 -20 -5 -25 -25 -25 -14 0 -25 -4 -25 -10 0 -5 11 -10 25 -10 20 0 25 -5 25 -25 0 -14 5 -25 10 -25 6 0 10 11 10 25 0 20 5 25 26 25 14 0 23 4 19 10 -3 6 -15 10 -26 10 -14 0 -19 7 -19 25 0 14 -4 25 -10 25 -5 0 -10 -11 -10 -25z"/> <path d="M368 1549 c-10 -5 -23 -19 -29 -30 -24 -45 52 -94 89 -57 20 20 14 65 -10 82 -26 19 -27 19 -50 5z m47 -49 c0 -18 -6 -26 -23 -28 -24 -4 -38 18 -28 44 3 9 15 14 28 12 17 -2 23 -10 23 -28z"/> </g> </svg> 